<svg width="49" height="48" viewBox="0 0 49 48" fill="none" xmlns="http://www.w3.org/2000/svg">
<path fill-rule="evenodd" clip-rule="evenodd" d="M6.71965 11.3095C6.8868 10.9752 7.27544 10.8147 7.6298 10.9335L45.04 23.4804C45.7217 23.7093 45.7217 24.6734 45.04 24.9023L7.6298 37.4492C7.27544 37.568 6.8868 37.4075 6.71965 37.0732L4.50285 32.6386C4.38685 32.4066 4.39912 32.131 4.53508 31.9101L6.64738 28.4755C5.0552 27.893 3.55466 27.0688 2.20402 26.0214L2.12199 25.9579C0.960589 25.0572 0.960687 23.3031 2.12199 22.4023L2.20402 22.3378C3.55152 21.2928 5.04758 20.4688 6.63566 19.8867L4.53508 16.4726C4.39914 16.2517 4.38691 15.9761 4.50285 15.7441L6.71965 11.3095Z" fill="url(#paint0_linear_327_10902)"/>
<path d="M29.5504 24.9656L36.332 27L36.332 21L29.5504 23.0345C29.124 23.1625 28.832 23.5549 28.832 24.0001C28.832 24.4452 29.124 24.8377 29.5504 24.9656Z" fill="url(#paint1_linear_327_10902)"/>
<path d="M30.6 23L41 23L41 25L30.6 25C29.7163 25 29 24.5523 29 24C29 23.4477 29.7163 23 30.6 23Z" fill="#333333"/>
<path d="M10.2267 27.8367L15.1396 28.5279C18.6101 29.0161 22.1345 28.1355 24.9676 26.0723L25.9014 25.3922C26.724 24.7931 26.724 23.5662 25.9014 22.9672L24.9676 22.2871C22.1345 20.2239 18.6101 19.3433 15.1396 19.8315L10.2267 20.5227C7.63805 20.8868 5.18951 21.9212 3.12379 23.5232L3.04154 23.587C2.65437 23.8873 2.65437 24.4721 3.04154 24.7723L3.12379 24.8361C5.18951 26.4382 7.63805 27.4725 10.2267 27.8367Z" fill="url(#paint2_radial_327_10902)"/>
<defs>
<linearGradient id="paint0_linear_327_10902" x1="8" y1="5" x2="8" y2="42.5" gradientUnits="userSpaceOnUse">
<stop offset="0.158859" stop-color="#AA7793"/>
<stop offset="0.509615" stop-color="#F1D2E3"/>
<stop offset="0.878738" stop-color="#AA7793"/>
</linearGradient>
<linearGradient id="paint1_linear_327_10902" x1="36.332" y1="24" x2="28.832" y2="24" gradientUnits="userSpaceOnUse">
<stop stop-color="#B58AA2" stop-opacity="0"/>
<stop offset="1" stop-color="#B58AA2"/>
</linearGradient>
<radialGradient id="paint2_radial_327_10902" cx="0" cy="0" r="1" gradientUnits="userSpaceOnUse" gradientTransform="translate(24 24.5) rotate(-90) scale(4.5 18.2621)">
<stop stop-color="#E76C00"/>
<stop offset="1" stop-color="#8A4100"/>
</radialGradient>
</defs>
</svg>
